<?xml version="1.0" encoding="UTF-8" standalone="no"?>
<!-- Created with Inkscape (http://www.inkscape.org/) -->

<svg
   xmlns:dc="http://purl.org/dc/elements/1.1/"
   xmlns:cc="http://creativecommons.org/ns#"
   xmlns:rdf="http://www.w3.org/1999/02/22-rdf-syntax-ns#"
   xmlns:svg="http://www.w3.org/2000/svg"
   xmlns="http://www.w3.org/2000/svg"
   xmlns:xlink="http://www.w3.org/1999/xlink"
   xmlns:sodipodi="http://sodipodi.sourceforge.net/DTD/sodipodi-0.dtd"
   xmlns:inkscape="http://www.inkscape.org/namespaces/inkscape"
   width="200mm"
   height="200mm"
   viewBox="0 0 200 200"
   version="1.1"
   id="svg874"
   inkscape:version="0.92.2 (5c3e80d, 2017-08-06)"
   sodipodi:docname="logo-white.svg">
  <defs
     id="defs868">
    <linearGradient
       inkscape:collect="always"
       id="linearGradient1438-8">
      <stop
         style="stop-color:#d9f1fa;stop-opacity:1"
         offset="0"
         id="stop1434" />
      <stop
         style="stop-color:#e9ffff;stop-opacity:1"
         offset="1"
         id="stop1436" />
    </linearGradient>
    <linearGradient
       inkscape:collect="always"
       xlink:href="#linearGradient1438-8"
       id="linearGradient1440"
       x1="69.16964"
       y1="173.40178"
       x2="193.90178"
       y2="173.77976"
       gradientUnits="userSpaceOnUse" />
  </defs>
  <sodipodi:namedview
     id="base"
     pagecolor="#ffffff"
     bordercolor="#666666"
     borderopacity="1.0"
     inkscape:pageopacity="0.0"
     inkscape:pageshadow="2"
     inkscape:zoom="0.7"
     inkscape:cx="26.054538"
     inkscape:cy="370.62483"
     inkscape:document-units="mm"
     inkscape:current-layer="layer1"
     showgrid="false"
     inkscape:window-width="1920"
     inkscape:window-height="1017"
     inkscape:window-x="1672"
     inkscape:window-y="-8"
     inkscape:window-maximized="1" />
  <metadata
     id="metadata871">
    <rdf:RDF>
      <cc:Work
         rdf:about="">
        <dc:format>image/svg+xml</dc:format>
        <dc:type
           rdf:resource="http://purl.org/dc/dcmitype/StillImage" />
        <dc:title></dc:title>
      </cc:Work>
    </rdf:RDF>
  </metadata>
  <g
     inkscape:label="Calque 1"
     inkscape:groupmode="layer"
     id="layer1"
     transform="translate(0,-97)"
     style="display:inline">
    <path
       style="display:inline;fill:#d9f1fa;fill-opacity:1;stroke:none;stroke-width:1.06130457;stroke-opacity:1"
       d="M 384.29688,6.9902344 A 370.97125,370.97125 0 0 0 6.9414062,371.46484 370.97125,370.97125 0 0 0 371.41797,748.82031 370.97125,370.97125 0 0 0 591.83789,680.44141 L 524.82812,587.9668 A 256.68552,256.68552 0 0 1 373.40039,634.55273 256.68552,256.68552 0 0 1 121.21094,373.44922 256.68552,256.68552 0 0 1 382.3125,121.25781 a 256.68552,256.68552 0 0 1 202.12305,104.625 l 85.10547,-76.76172 A 370.97125,370.97125 0 0 0 384.29688,6.9902344 Z"
       transform="matrix(0.26458333,0,0,0.26458333,0,97)"
       id="path1424"
       inkscape:connector-curvature="0" />
    <path
       sodipodi:nodetypes="cccccc"
       inkscape:connector-curvature="0"
       id="path1429"
       d="M 150.43452,160.5506 188.9881,125.77679 222.25,227.83036 163.66369,286.79464 125.86607,234.63393 Z"
       style="display:none;fill:none;fill-rule:evenodd;stroke:#000000;stroke-width:0.26458332px;stroke-linecap:butt;stroke-linejoin:miter;stroke-opacity:1" />
    <path
       style="display:inline;fill:#f15942;fill-opacity:1;stroke:none;stroke-width:1.06130457;stroke-opacity:1"
       d="m 699.26172,193.52539 -76.06641,109.96484 a 256.68552,256.68552 0 0 1 11.3086,78.8711 256.68552,256.68552 0 0 1 -71.60157,172.97461 l 69.27344,92.15234 A 370.97125,370.97125 0 0 0 748.77344,384.3457 370.97125,370.97125 0 0 0 699.26172,193.52539 Z"
       transform="matrix(0.26458333,0,0,0.26458333,0,97)"
       id="path1419"
       inkscape:connector-curvature="0" />
    <path
       style="display:inline;fill:url(#linearGradient1440);fill-opacity:1;fill-rule:evenodd;stroke:none;stroke-width:0.26458332px;stroke-linecap:butt;stroke-linejoin:miter;stroke-opacity:1"
       d="M 22.300595,185.875 99.407736,248.24107 198.05952,110.65773 161.77381,110.27977 93.738093,204.39584 31.750001,154.88095 Z"
       id="path1432"
       inkscape:connector-curvature="0"
       sodipodi:nodetypes="ccccccc" />
  </g>
</svg>
