<?xml version="1.0" encoding="UTF-8" standalone="no"?>

<svg xmlns="http://www.w3.org/2000/svg" width="150" height="53" viewBox="0 0 150 53">
    <g fill="white">
        <path d="M125.043 13.74c5.936 1.741 10.154 6.544 10.154 13.375 0 8.683-6.797 14.107-15.294 14.107-8.498 0-15.298-5.424-15.298-14.107 0-1.968.366-3.758 1.007-5.365a56.92 56.92 0 0 1 1.904-1.429c4.101-2.942 7.14-4.457 7.14-4.457l-.114-.244s-3.195 1.23-7.565 3.908c-.124.076-.26.163-.385.242 1.672-2.732 4.293-4.732 7.47-5.818a.89.89 0 0 0 .422.396 1.9 1.9 0 0 0 .642.122c.054.003.108.005.156.013l.27.026a1.33 1.33 0 0 0 .17.967c.11.183.268.34.472.466-.16.204-.318.41-.474.614-.23.317-.27.687-.108.998.016.039.048.068.072.101-3.84 1.374-6.09 4.75-6.09 9.46 0 6.24 3.947 10.147 10.309 10.147 6.358 0 10.305-3.907 10.305-10.147 0-6.15-3.841-10.025-10.042-10.135.678-.289 1.293-.707 1.66-1.155.155-.196.292-.38.428-.562.045-.065.092-.13.14-.192a19.828 19.828 0 0 0 2.649-1.33zM42.92 36.796c-3.354 0-5.983-.762-8.667-2.993v-16.04c2.405-.764 4.084-1.033 7.493-1.033 6.433 0 10.29 3.479 10.29 10.223 0 6.199-3.466 9.843-9.115 9.843zm-22.285-3.48c-3.077 2.607-6.207 3.587-9.898 3.587-3.469 0-5.48-1.522-5.48-4.458 0-1.305.334-2.339 1.119-3.263 3.633-.979 7.771-1.52 14.26-1.632v5.765zm21.111-20.557c-4.92 0-8.387.544-12.692 1.577v22.566c-2.727-.014-3.387-.73-3.387-3.314V22.22c0-6.633-3.858-9.462-12.078-9.462-4.642 0-7.717.707-11.912 2.393l1.12 4.024c3.634-1.523 7.045-2.231 10.57-2.231 5.478 0 7.268 1.687 7.268 5.44v1.523c-7.83.163-12.974.814-18.007 2.338C.728 28.366 0 30.27 0 32.718c0 5.11 3.466 8.32 10.009 8.32 5.146 0 8.948-1.469 11.521-4.46.223 2.774 1.621 4.46 3.913 4.46 1.423 0 2.418-.157 3.61-.522V53h5.2V38.48c2.518 1.906 4.864 2.558 8.668 2.558 9.62 0 14.316-5.874 14.316-14.085 0-8.864-5.482-14.194-15.49-14.194zM73.52 37.226c-6.36 0-10.307-3.94-10.307-10.236 0-6.295 3.947-10.234 10.308-10.234 6.36 0 10.306 3.939 10.306 10.234s-3.946 10.236-10.306 10.236m0-24.467c-8.5 0-15.297 5.474-15.297 14.231 0 8.759 6.798 14.232 15.297 14.232 8.498 0 15.295-5.473 15.295-14.232 0-8.757-6.797-14.23-15.295-14.23"></path>
        <g transform="translate(89.803)">
            <mask id="i5807-a">
                <path d="M.099.632h5.217v33.573H.099z"></path>
            </mask>
            <path d="M.117 5.659L.1 34.205a43.22 43.22 0 0 1 2.072-2.478c.994-1.143 2.063-2.214 3.136-3.255L5.316.632h-.107C2.388.686.117 2.916.117 5.66"></path>
        </g>
        <path d="M95.724 31.407c-.45.551-.893 1.11-1.313 1.687a45.04 45.04 0 0 0-2.707 4.092c-.322.542-.614 1.093-.912 1.635l-.003 2.401h4.932l.003-9.815zm6.908-7.851a51.23 51.23 0 0 0-2.242 2.062c-.91.867-1.803 1.81-2.684 2.776l-.009 12.828h4.93l.005-17.666z"></path>
        <g transform="translate(97.697)">
            <mask id="i5807-b">
                <path d="M.28.64h5.212v25.8H.28V.64z"></path>
            </mask>
            <path d="M.293 5.73L.28 26.44a51.824 51.824 0 0 1 1.763-1.483 58.11 58.11 0 0 1 3.444-2.596L5.492.64h-.105C2.565.694.293 2.951.293 5.73"></path>
        </g>
        <path d="M120.41 11.501c-.069.026-.149.081-.21.081a2.28 2.28 0 0 0-1.172-.127c-.552 0-1.258.202-1.849.537-.779.446-1.55.896-2.328 1.342-.36.205-.491.526-.267.629.153.064.388.051.58.077.414.044.866.064 1.26.121-.362.45-.508.903-.317 1.214.157.275.55.43 1.048.455-.353.483-.728.967-1.083 1.45-.158.22-.005.387.275.387a.97.97 0 0 0 .284-.05c.87-.282 1.74-.571 2.607-.862.687-.232 1.349-.659 1.701-1.1.229-.3.436-.601.658-.9.396-.16.78-.34 1.157-.531.31-.151.605-.312.902-.477l.003-.003a18.867 18.867 0 0 0 3.204-2.246c.568-.518 1.151-1.06 1.426-1.587-.26-.073-.567-.096-.895-.096-.4 0-.835.037-1.26.077-1.803.198-3.83.718-5.724 1.61m26.505 21.868c-1.973 0-2.554 1.548-2.886 3.222l-.398 1.975c-.38 1.88-.89 2.02-1.62 2.02-.417 0-1.683 0-1.683-2.793 0-1.832.721-2.812 2.144-2.915l.294-.02v-1.23l-.327.01c-1.503.049-3.294.84-3.294 4.33 0 2.904 1.472 3.94 2.85 3.94 1.827 0 2.455-1.205 2.875-3.15l.383-1.788c.413-1.962.84-2.28 1.702-2.28 1.183 0 1.86 1.058 1.86 2.9 0 2.256-.846 3.36-2.589 3.372l-.315.003v1.238h.318c1.72 0 3.771-.81 3.771-4.666 0-3.761-2.158-4.168-3.085-4.168m0-8.833c-1.973 0-2.554 1.549-2.886 3.222l-.398 1.974c-.38 1.88-.89 2.02-1.62 2.02-.417 0-1.683 0-1.683-2.793 0-1.83.721-2.81 2.144-2.914l.294-.02v-1.23l-.327.01c-1.503.048-3.294.84-3.294 4.33 0 2.904 1.472 3.94 2.85 3.94 1.827 0 2.455-1.206 2.875-3.15l.383-1.789c.413-1.96.84-2.277 1.702-2.277 1.183 0 1.86 1.056 1.86 2.899 0 2.255-.846 3.358-2.589 3.37l-.315.003v1.238h.318c1.72 0 3.771-.809 3.771-4.664 0-3.763-2.158-4.169-3.085-4.169m-1.128-10.757l-.354-.04v1.153l.264.042c1.923.308 3.119 1.668 3.119 3.55 0 2.7-2.131 3.91-4.244 3.91-2.459 0-4.244-1.645-4.244-3.91 0-1.775.934-3.048 2.499-3.404l.24-.055v-1.171l-.387.08c-2.215.461-3.535 2.161-3.535 4.55 0 3.329 2.73 5.07 5.427 5.07 3.247 0 5.428-2.038 5.428-5.07 0-2.79-2.119-4.48-4.213-4.705"></path>
    </g>
</svg>