<?xml version="1.0" encoding="utf-8"?>
<!-- Generator: Adobe Illustrator 22.0.1, SVG Export Plug-In . SVG Version: 6.00 Build 0)  -->
<svg version="1.1" id="Calque_1" xmlns="http://www.w3.org/2000/svg" xmlns:xlink="http://www.w3.org/1999/xlink" x="0px" y="0px"
	 viewBox="0 0 283.5 70.9" style="enable-background:new 0 0 283.5 70.9;" xml:space="preserve">
<style type="text/css">
	.st0{fill:#FFFFFF;}
</style>
<path class="st0" d="M151.3,35.6c0-2.7,0.4-5.2,1.3-7.4c0.9-2.2,2.1-4.1,3.7-5.7c1.6-1.6,3.4-2.8,5.6-3.6c2.2-0.8,4.6-1.3,7.2-1.3
	c2.6,0,5.1,0.4,7.2,1.2c2.2,0.8,4.1,2,5.7,3.6c1.6,1.6,2.8,3.4,3.7,5.6c0.9,2.2,1.3,4.6,1.3,7.3c0,2.6-0.4,5-1.3,7.2
	c-0.9,2.2-2.1,4-3.7,5.6c-1.6,1.6-3.5,2.8-5.7,3.6c-2.2,0.9-4.6,1.3-7.2,1.4c-2.6,0-5-0.4-7.2-1.3c-2.2-0.8-4.1-2-5.6-3.6
	c-1.6-1.5-2.8-3.4-3.7-5.6C151.7,40.7,151.3,38.3,151.3,35.6z M157.6,35.2c0,1.8,0.3,3.5,0.8,5c0.6,1.5,1.3,2.8,2.4,4
	c1,1.1,2.2,2,3.6,2.6c1.4,0.6,3,1,4.7,1c1.7,0,3.3-0.3,4.8-1c1.4-0.6,2.7-1.5,3.7-2.6c1-1.1,1.8-2.4,2.4-4c0.6-1.5,0.8-3.2,0.8-5
	c0-1.7-0.3-3.3-0.8-4.7c-0.6-1.5-1.3-2.7-2.4-3.8c-1-1.1-2.2-2-3.7-2.6c-1.4-0.6-3-0.9-4.8-0.9c-1.7,0-3.3,0.3-4.7,0.9
	c-1.4,0.6-2.6,1.5-3.6,2.6c-1,1.1-1.8,2.4-2.4,3.8C157.8,32,157.6,33.6,157.6,35.2z"/>
<path class="st0" d="M192.8,18.6h6v28.3h14.4v5.4h-20.4V18.6z"/>
<path class="st0" d="M217.6,18.6h6v28.3h14.4v5.4h-20.4V18.6z"/>
<path class="st0" d="M240.5,35.6c0-2.7,0.4-5.2,1.3-7.4c0.9-2.2,2.1-4.1,3.7-5.7c1.6-1.6,3.4-2.8,5.6-3.6c2.2-0.8,4.6-1.3,7.2-1.3
	c2.6,0,5.1,0.4,7.2,1.2c2.2,0.8,4.1,2,5.7,3.6c1.6,1.6,2.8,3.4,3.7,5.6c0.9,2.2,1.3,4.6,1.3,7.3c0,2.6-0.4,5-1.3,7.2
	c-0.9,2.2-2.1,4-3.7,5.6c-1.6,1.6-3.5,2.8-5.7,3.6c-2.2,0.9-4.6,1.3-7.2,1.4c-2.6,0-5-0.4-7.2-1.3c-2.2-0.8-4.1-2-5.6-3.6
	c-1.6-1.5-2.8-3.4-3.7-5.6C241,40.7,240.5,38.3,240.5,35.6z M246.8,35.2c0,1.8,0.3,3.5,0.8,5c0.6,1.5,1.3,2.8,2.4,4
	c1,1.1,2.2,2,3.6,2.6c1.4,0.6,3,1,4.7,1c1.7,0,3.3-0.3,4.8-1c1.4-0.6,2.7-1.5,3.7-2.6c1-1.1,1.8-2.4,2.4-4c0.6-1.5,0.8-3.2,0.8-5
	c0-1.7-0.3-3.3-0.8-4.7c-0.6-1.5-1.3-2.7-2.4-3.8c-1-1.1-2.2-2-3.7-2.6c-1.4-0.6-3-0.9-4.8-0.9c-1.7,0-3.3,0.3-4.7,0.9
	c-1.4,0.6-2.6,1.5-3.6,2.6c-1,1.1-1.8,2.4-2.4,3.8C247.1,32,246.8,33.6,246.8,35.2z"/>
<path class="st0" d="M146.2,23.5c-0.7-1.3-1.6-2.3-2.7-3c-1.1-0.7-2.5-1.3-4-1.6c-1.5-0.3-3.1-0.5-4.7-0.5h-11.4v33.8h6V23.6h4.3
	c0.8,0,1.6,0,2.5,0.1c0.9,0.1,1.6,0.3,2.3,0.6c0.7,0.3,1.3,0.8,1.7,1.4c0.4,0.6,0.7,1.5,0.7,2.5c0,1.1-0.2,2-0.7,2.7
	c-0.5,0.6-1.1,1.1-1.9,1.4c-0.8,0.3-1.6,0.5-2.6,0.6c-0.9,0.1-1.8,0.1-2.7,0.1h-1.8l2.3,5.2h0.2c1.8,0,3.5-0.1,5.1-0.4
	c1.6-0.3,3.1-0.7,4.3-1.5c1.2-0.7,2.2-1.7,3-3c0.7-1.3,1.1-3,1.1-5.2C147.2,26.4,146.9,24.8,146.2,23.5z"/>
<polygon class="st0" points="105.1,18.5 96.7,18.5 85.2,52.2 92.3,52.2 100.8,23.7 107.5,39.4 98,39.4 98.6,44.5 109.6,44.5 
	112.8,52.2 119.6,52.2 "/>
<g>
	<polygon class="st0" points="67.3,69.8 49.1,28.3 34.3,44.3 	"/>
</g>
<polygon class="st0" points="47.6,25 36.7,0.3 6.5,69.6 "/>
</svg>
